<mxfile host="65bd71144e">
    <diagram id="C5RBs43oDa-KdzZeNtuy" name="Page-1">
        <mxGraphModel dx="1086" dy="679" grid="1" gridSize="10" guides="1" tooltips="1" connect="1" arrows="1" fold="1" page="0" pageScale="1" pageWidth="827" pageHeight="1169" background="none" math="0" shadow="0">
            <root>
                <mxCell id="WIyWlLk6GJQsqaUBKTNV-0"/>
                <mxCell id="WIyWlLk6GJQsqaUBKTNV-1" parent="WIyWlLk6GJQsqaUBKTNV-0"/>
                <mxCell id="36" value="" style="swimlane;startSize=0;fontSize=12;" parent="WIyWlLk6GJQsqaUBKTNV-1" vertex="1">
                    <mxGeometry x="-240" y="290" width="370" height="200" as="geometry"/>
                </mxCell>
                <mxCell id="48" value="" style="endArrow=none;html=1;fontSize=12;entryX=0.432;entryY=0.8;entryDx=0;entryDy=0;entryPerimeter=0;" parent="36" target="36" edge="1">
                    <mxGeometry width="50" height="50" relative="1" as="geometry">
                        <mxPoint x="70" y="70" as="sourcePoint"/>
                        <mxPoint x="160" y="160" as="targetPoint"/>
                    </mxGeometry>
                </mxCell>
                <mxCell id="49" value="" style="endArrow=none;html=1;fontSize=12;exitX=0.541;exitY=0.8;exitDx=0;exitDy=0;exitPerimeter=0;" parent="36" source="36" edge="1">
                    <mxGeometry width="50" height="50" relative="1" as="geometry">
                        <mxPoint x="160" y="160" as="sourcePoint"/>
                        <mxPoint x="200" y="90" as="targetPoint"/>
                    </mxGeometry>
                </mxCell>
                <mxCell id="57" value="" style="endArrow=none;html=1;fontSize=12;" parent="36" edge="1">
                    <mxGeometry width="50" height="50" relative="1" as="geometry">
                        <mxPoint x="160" y="160" as="sourcePoint"/>
                        <mxPoint x="200" y="160" as="targetPoint"/>
                    </mxGeometry>
                </mxCell>
                <mxCell id="58" value="" style="endArrow=none;html=1;fontSize=12;" parent="36" edge="1">
                    <mxGeometry width="50" height="50" relative="1" as="geometry">
                        <mxPoint x="270" y="160" as="sourcePoint"/>
                        <mxPoint x="330" y="160" as="targetPoint"/>
                    </mxGeometry>
                </mxCell>
                <mxCell id="59" value="Attend" style="text;html=1;strokeColor=none;fillColor=none;align=center;verticalAlign=middle;whiteSpace=wrap;rounded=0;fontSize=12;" parent="36" vertex="1">
                    <mxGeometry x="10" y="40" width="60" height="30" as="geometry"/>
                </mxCell>
                <mxCell id="61" value="Wander" style="text;html=1;strokeColor=none;fillColor=none;align=center;verticalAlign=middle;whiteSpace=wrap;rounded=0;fontSize=12;" parent="36" vertex="1">
                    <mxGeometry x="20" y="120" width="60" height="30" as="geometry"/>
                </mxCell>
                <mxCell id="63" style="edgeStyle=none;html=1;targetPerimeterSpacing=0;endSize=3;jumpSize=0;dashed=1;dashPattern=1 4;endArrow=classic;endFill=1;" parent="36" source="62" edge="1">
                    <mxGeometry relative="1" as="geometry">
                        <mxPoint x="70" y="70" as="targetPoint"/>
                    </mxGeometry>
                </mxCell>
                <mxCell id="62" value="Production compilation" style="text;html=1;strokeColor=default;fillColor=none;align=center;verticalAlign=middle;whiteSpace=wrap;rounded=0;strokeWidth=1;perimeterSpacing=0;spacingTop=4;spacingBottom=4;spacingLeft=4;spacingRight=4;dashed=1;dashPattern=1 4;" parent="36" vertex="1">
                    <mxGeometry x="110" y="7" width="64" height="33" as="geometry"/>
                </mxCell>
                <mxCell id="66" value="remember-to-attend" style="text;html=1;strokeColor=default;fillColor=none;align=center;verticalAlign=middle;whiteSpace=wrap;rounded=0;strokeWidth=1;perimeterSpacing=0;spacingTop=4;spacingBottom=4;spacingLeft=4;spacingRight=4;dashed=1;dashPattern=1 4;" parent="36" vertex="1">
                    <mxGeometry x="250" y="30" width="64" height="33" as="geometry"/>
                </mxCell>
                <mxCell id="37" value="Time" style="text;html=1;strokeColor=none;fillColor=none;align=center;verticalAlign=middle;whiteSpace=wrap;rounded=0;fontSize=12;" parent="WIyWlLk6GJQsqaUBKTNV-1" vertex="1">
                    <mxGeometry x="-85" y="490" width="60" height="30" as="geometry"/>
                </mxCell>
                <mxCell id="38" value="Production utility" style="text;html=1;strokeColor=none;fillColor=none;align=center;verticalAlign=middle;whiteSpace=wrap;rounded=0;fontSize=12;rotation=270;" parent="WIyWlLk6GJQsqaUBKTNV-1" vertex="1">
                    <mxGeometry x="-320" y="375" width="130" height="30" as="geometry"/>
                </mxCell>
                <mxCell id="44" value="" style="endArrow=none;html=1;fontSize=12;entryX=0;entryY=0.75;entryDx=0;entryDy=0;exitX=1;exitY=0.75;exitDx=0;exitDy=0;dashed=1;" parent="WIyWlLk6GJQsqaUBKTNV-1" source="36" target="36" edge="1">
                    <mxGeometry width="50" height="50" relative="1" as="geometry">
                        <mxPoint x="-129.99999999999977" y="419.5899999999999" as="sourcePoint"/>
                        <mxPoint x="-240" y="419.0899999999999" as="targetPoint"/>
                    </mxGeometry>
                </mxCell>
                <mxCell id="46" value="" style="endArrow=none;html=1;fontSize=12;entryX=0.189;entryY=0.35;entryDx=0;entryDy=0;entryPerimeter=0;exitX=0.8;exitY=1.012;exitDx=0;exitDy=0;exitPerimeter=0;" parent="WIyWlLk6GJQsqaUBKTNV-1" target="36" edge="1" source="38">
                    <mxGeometry width="50" height="50" relative="1" as="geometry">
                        <mxPoint x="-240" y="360" as="sourcePoint"/>
                        <mxPoint x="-170" y="358" as="targetPoint"/>
                    </mxGeometry>
                </mxCell>
                <mxCell id="47" value="" style="endArrow=none;html=1;fontSize=12;exitX=0.75;exitY=1;exitDx=0;exitDy=0;" parent="WIyWlLk6GJQsqaUBKTNV-1" source="38" target="36" edge="1">
                    <mxGeometry width="50" height="50" relative="1" as="geometry">
                        <mxPoint x="-190" y="280" as="sourcePoint"/>
                        <mxPoint x="-170" y="358" as="targetPoint"/>
                    </mxGeometry>
                </mxCell>
                <mxCell id="52" value="" style="endArrow=none;html=1;fontSize=12;exitX=0.892;exitY=0.55;exitDx=0;exitDy=0;exitPerimeter=0;entryX=1;entryY=0.75;entryDx=0;entryDy=0;" parent="WIyWlLk6GJQsqaUBKTNV-1" source="36" target="36" edge="1">
                    <mxGeometry width="50" height="50" relative="1" as="geometry">
                        <mxPoint y="390" as="sourcePoint"/>
                        <mxPoint x="140" y="450" as="targetPoint"/>
                    </mxGeometry>
                </mxCell>
                <mxCell id="51" value="" style="endArrow=none;html=1;fontSize=12;entryX=0.892;entryY=0.8;entryDx=0;entryDy=0;entryPerimeter=0;" parent="WIyWlLk6GJQsqaUBKTNV-1" target="36" edge="1">
                    <mxGeometry width="50" height="50" relative="1" as="geometry">
                        <mxPoint x="90" y="400" as="sourcePoint"/>
                        <mxPoint y="450" as="targetPoint"/>
                    </mxGeometry>
                </mxCell>
                <mxCell id="50" value="" style="endArrow=none;html=1;fontSize=12;exitX=0.73;exitY=0.8;exitDx=0;exitDy=0;exitPerimeter=0;entryX=0.541;entryY=0.45;entryDx=0;entryDy=0;entryPerimeter=0;" parent="WIyWlLk6GJQsqaUBKTNV-1" source="36" target="36" edge="1">
                    <mxGeometry width="50" height="50" relative="1" as="geometry">
                        <mxPoint x="-270" y="330" as="sourcePoint"/>
                        <mxPoint x="-80" y="380" as="targetPoint"/>
                    </mxGeometry>
                </mxCell>
                <mxCell id="64" value="MW" style="endArrow=classicThin;startArrow=classicThin;html=1;entryX=0.541;entryY=0.9;entryDx=0;entryDy=0;entryPerimeter=0;exitX=0.432;exitY=0.9;exitDx=0;exitDy=0;exitPerimeter=0;endFill=1;dashed=1;dashPattern=1 2;startFill=1;labelPosition=center;verticalLabelPosition=middle;align=center;verticalAlign=middle;fontSize=9;" parent="WIyWlLk6GJQsqaUBKTNV-1" source="36" target="36" edge="1">
                    <mxGeometry x="-0.0002" y="-10" width="50" height="50" relative="1" as="geometry">
                        <mxPoint x="-130" y="510" as="sourcePoint"/>
                        <mxPoint x="-80" y="460" as="targetPoint"/>
                        <mxPoint as="offset"/>
                    </mxGeometry>
                </mxCell>
                <mxCell id="65" value="MW" style="endArrow=classicThin;startArrow=classicThin;html=1;exitX=0.73;exitY=0.9;exitDx=0;exitDy=0;exitPerimeter=0;endFill=1;dashed=1;dashPattern=1 2;startFill=1;fontSize=9;" parent="WIyWlLk6GJQsqaUBKTNV-1" source="36" edge="1">
                    <mxGeometry x="-0.0017" y="-10" width="50" height="50" relative="1" as="geometry">
                        <mxPoint x="-70.15999999999997" y="480" as="sourcePoint"/>
                        <mxPoint x="90" y="470" as="targetPoint"/>
                        <mxPoint as="offset"/>
                    </mxGeometry>
                </mxCell>
                <mxCell id="67" style="edgeStyle=none;html=1;dashed=1;dashPattern=1 4;startArrow=none;startFill=0;endArrow=classicThin;endFill=1;" parent="WIyWlLk6GJQsqaUBKTNV-1" source="66" edge="1">
                    <mxGeometry relative="1" as="geometry">
                        <mxPoint x="-40" y="380" as="targetPoint"/>
                    </mxGeometry>
                </mxCell>
                <mxCell id="68" style="edgeStyle=none;html=1;dashed=1;dashPattern=1 4;fontSize=10;startArrow=none;startFill=0;endArrow=blockThin;endFill=1;" parent="WIyWlLk6GJQsqaUBKTNV-1" source="66" edge="1">
                    <mxGeometry relative="1" as="geometry">
                        <mxPoint x="90" y="450" as="targetPoint"/>
                    </mxGeometry>
                </mxCell>
            </root>
        </mxGraphModel>
    </diagram>
</mxfile>